<mxfile host="app.diagrams.net" modified="2024-01-29T12:32:29.802Z" agent="Mozilla/5.0 (Windows NT 10.0; Win64; x64) AppleWebKit/537.36 (KHTML, like Gecko) Chrome/121.0.0.0 Safari/537.36" etag="NAIaJY5ZjE37yjKLjljq" version="23.0.2" type="device">
  <diagram name="第 1 页" id="Y2DZ1nz5SWWc_xptd_u3">
    <mxGraphModel dx="1195" dy="622" grid="1" gridSize="10" guides="1" tooltips="1" connect="1" arrows="1" fold="1" page="1" pageScale="1" pageWidth="827" pageHeight="1169" math="0" shadow="0">
      <root>
        <mxCell id="0" />
        <mxCell id="1" parent="0" />
        <mxCell id="oG39Prwjat_xSqXmtaYL-2" value="" style="rounded=0;whiteSpace=wrap;html=1;fillColor=#dae8fc;strokeColor=#6c8ebf;" vertex="1" parent="1">
          <mxGeometry x="160" y="220" width="140" height="20" as="geometry" />
        </mxCell>
        <mxCell id="oG39Prwjat_xSqXmtaYL-3" value="" style="rounded=0;whiteSpace=wrap;html=1;fillColor=#d5e8d4;strokeColor=#82b366;" vertex="1" parent="1">
          <mxGeometry x="200" y="250" width="140" height="20" as="geometry" />
        </mxCell>
        <mxCell id="oG39Prwjat_xSqXmtaYL-4" value="" style="rounded=0;whiteSpace=wrap;html=1;fillColor=#ffe6cc;strokeColor=#d79b00;" vertex="1" parent="1">
          <mxGeometry x="230" y="280" width="140" height="20" as="geometry" />
        </mxCell>
        <mxCell id="oG39Prwjat_xSqXmtaYL-7" value="&lt;font style=&quot;font-size: 18px;&quot;&gt;滑动窗口1&lt;/font&gt;" style="text;html=1;align=center;verticalAlign=middle;resizable=0;points=[];autosize=1;strokeColor=none;fillColor=none;" vertex="1" parent="1">
          <mxGeometry x="55" y="213" width="110" height="40" as="geometry" />
        </mxCell>
        <mxCell id="oG39Prwjat_xSqXmtaYL-8" value="&lt;font style=&quot;font-size: 18px;&quot;&gt;滑动窗口2&lt;/font&gt;" style="text;html=1;align=center;verticalAlign=middle;resizable=0;points=[];autosize=1;strokeColor=none;fillColor=none;" vertex="1" parent="1">
          <mxGeometry x="90" y="240" width="110" height="40" as="geometry" />
        </mxCell>
        <mxCell id="oG39Prwjat_xSqXmtaYL-9" value="&lt;font style=&quot;font-size: 18px;&quot;&gt;滑动窗口3&lt;/font&gt;" style="text;html=1;align=center;verticalAlign=middle;resizable=0;points=[];autosize=1;strokeColor=none;fillColor=none;" vertex="1" parent="1">
          <mxGeometry x="120" y="270" width="110" height="40" as="geometry" />
        </mxCell>
        <mxCell id="oG39Prwjat_xSqXmtaYL-10" value="&lt;font style=&quot;font-size: 18px;&quot;&gt;时间轴&lt;/font&gt;" style="text;html=1;align=center;verticalAlign=middle;resizable=0;points=[];autosize=1;strokeColor=none;fillColor=none;" vertex="1" parent="1">
          <mxGeometry x="320" y="160" width="80" height="40" as="geometry" />
        </mxCell>
        <mxCell id="oG39Prwjat_xSqXmtaYL-11" value="" style="shape=flexArrow;endArrow=classic;html=1;rounded=0;fillColor=#f5f5f5;strokeColor=#666666;" edge="1" parent="1">
          <mxGeometry width="50" height="50" relative="1" as="geometry">
            <mxPoint x="160" y="200" as="sourcePoint" />
            <mxPoint x="620" y="200" as="targetPoint" />
          </mxGeometry>
        </mxCell>
        <mxCell id="oG39Prwjat_xSqXmtaYL-12" value="" style="endArrow=classic;html=1;rounded=0;" edge="1" parent="1">
          <mxGeometry width="50" height="50" relative="1" as="geometry">
            <mxPoint x="300" y="360" as="sourcePoint" />
            <mxPoint x="300" y="240" as="targetPoint" />
          </mxGeometry>
        </mxCell>
        <mxCell id="oG39Prwjat_xSqXmtaYL-13" value="" style="endArrow=classic;html=1;rounded=0;" edge="1" parent="1">
          <mxGeometry width="50" height="50" relative="1" as="geometry">
            <mxPoint x="340" y="360" as="sourcePoint" />
            <mxPoint x="340" y="250" as="targetPoint" />
          </mxGeometry>
        </mxCell>
        <mxCell id="oG39Prwjat_xSqXmtaYL-14" value="" style="endArrow=classic;html=1;rounded=0;" edge="1" parent="1">
          <mxGeometry width="50" height="50" relative="1" as="geometry">
            <mxPoint x="370" y="360" as="sourcePoint" />
            <mxPoint x="370" y="280" as="targetPoint" />
          </mxGeometry>
        </mxCell>
        <mxCell id="oG39Prwjat_xSqXmtaYL-15" value="&lt;font style=&quot;font-size: 18px;&quot;&gt;请求到来，统计窗口内的请求数，看是否达到阈值&lt;/font&gt;" style="text;html=1;align=center;verticalAlign=middle;resizable=0;points=[];autosize=1;strokeColor=none;fillColor=none;" vertex="1" parent="1">
          <mxGeometry x="125" y="360" width="420" height="40" as="geometry" />
        </mxCell>
      </root>
    </mxGraphModel>
  </diagram>
</mxfile>
